<?xml version="1.0" encoding="UTF-8" standalone="no"?>
<svg width="1181px" height="577px" viewBox="0 0 1181 577" version="1.1" xmlns="http://www.w3.org/2000/svg" xmlns:xlink="http://www.w3.org/1999/xlink" xmlns:sketch="http://www.bohemiancoding.com/sketch/ns">
    <title>Slice 1</title>
    <description>Created with Sketch (http://www.bohemiancoding.com/sketch)</description>
    <defs></defs>
    <g id="Page 1" stroke="none" stroke-width="1" fill="none" fill-rule="evenodd">
        <path style="fill: rgba(255,255,255,0.3)" d="M630.507094,26.3957693 L630.507094,60.9982131 L645.500911,60.9982131 L645.500911,26.3957693 Z M621.510804,1.19152013 L655.670464,1.19152013 L670.562005,9.94892896 L670.562006,164.805544 L672.061387,171.213404 L666.278058,166.727902 L644.215727,149.42668 L645.500911,145.581965 L645.500911,86.2024622 L630.507094,86.2024622 L630.507094,138.746914 L605.446,119.096143 L606.945382,117.814571 L606.945382,9.94892874 Z M621.510804,1.19152013" id="A" fill="#000000"></path>
        <path style="fill: rgba(255,255,255,0.3)" d="M749.628822,138.545826 L788.155406,138.545826 L788.155406,266.024716 L790.95734,272.660603 L684.133629,187.441839 L684.133629,166.486405 L749.628822,68.69438 L749.628822,42.5000876 L719.157797,42.5000876 L719.157797,62.0584926 L684.133629,62.0584926 L684.133629,10.019165 L677.128796,1.28773424 L764.338973,1.28773424 L788.155406,15.6072807 L788.155406,69.3928945 L787.805165,69.3928945 L724.761664,163.692347 L749.628822,184.298524 L749.628822,184.298524 L749.628822,138.545826 L749.628822,138.545826 Z M749.628822,138.545826" id="Z" fill="#000000"></path>
        <path style="fill: rgba(255,255,255,0.3)" d="M935.003149,23.2220243 L935.003149,281.886425 L875.075816,337.283353 L803.775413,277.088265 L803.775413,24.9668095 L822.147296,0.9760135 L915.756414,0.9760135 Z M882.512055,48.0852129 L853.204527,48.0852129 L853.204527,244.373544 L882.512055,270.109125 Z M882.512055,48.0852129" id="O" fill="#000000"></path>
        <path style="fill: rgba(255,255,255,0.3)" d="M1166.63447,18.9189705 L1166.63447,525.111043 L1173.06908,553.628906 L1076.55,478.056569 L1080.83973,470.927103 L1080.83973,434.566827 L1032.93767,279.144473 L1032.93767,434.566827 L1030.7928,441.696293 L1030.7928,442.40924 L950.002759,379.66994 L954.292496,376.105208 L954.292496,18.9189705 L939.993373,1.09530601 L1032.93767,1.09530601 L1032.93767,9.65066498 L1080.83973,155.804714 L1080.83973,1.09530601 L1180.93359,1.09530601 L1180.93359,1.09530601 L1166.63447,18.9189705 L1166.63447,18.9189705 Z M1166.63447,18.9189705" id="N" fill="#000000"></path>
        <path style="fill: rgba(255,255,255,0.3)" d="M569.722,80.01 L553.072,139.284 L536.866,95.106 L536.866,154.158 L540.418,159.264 L525.322,170.586 L510.892,181.242 L513.778,167.922 L513.778,7.638 L509.56,1.2 L538.864,1.2 L552.628,36.276 L565.504,1.2 L593.92,1.2 L592.144,6.528 L592.144,117.972 L593.698,119.304 L569.722,137.286 L569.722,137.286 L569.722,80.01 L569.722,80.01 Z M569.722,80.01" id="M" fill="#000000"></path>
        <path style="fill: rgba(255,255,255,0.3)" d="M419.583,1.7 L483.141,1.7 L496.209,16.847 L496.209,189.701 L447.798,230.687 L407.109,192.968 L407.109,18.035 Z M440.67,33.776 L440.67,167.426 L460.569,184.949 L460.569,33.776 Z M440.67,33.776" id="O" fill="#000000"></path>
        <path style="fill: rgba(255,255,255,0.3)" d="M275.973798,1.29697296 L369.112073,1.29697296 L388.261999,23.4934778 L388.261999,276.794769 L317.320228,336.855899 L257.694323,281.58225 L257.694323,25.2343802 Z M306.874814,48.3013362 L306.874814,244.15285 L336.034929,269.831159 L336.034929,48.3013362 Z M306.874814,48.3013362" id="O" fill="#000000"></path>
        <path style="fill: rgba(255,255,255,0.3)" d="M0.18,1.1 L184.689,1.1 L235.077,31.481 L235.077,396.053 L9.072,576.857 L15,562.778 L15,19.625 Z M96.51,88.538 L96.51,373.823 L146.157,336.032 L146.157,88.538 Z M96.51,88.538" id="D" fill="#000000"></path>
    </g>
</svg>
